<svg xmlns="http://www.w3.org/2000/svg" width="1600" height="900" viewBox="0 0 1600 900" role="img" aria-labelledby="title desc">
  <title id="title">Oncology condition and custody control</title>
  <desc id="desc">Abstract editorial composition showing controlled packaging, temperature evidence and custody checkpoints for specialist medicines.</desc>
  <defs>
    <linearGradient id="bg" x1="0" y1="0" x2="1" y2="1">
      <stop offset="0" stop-color="#dce5e7"/>
      <stop offset="1" stop-color="#f6f2ea"/>
    </linearGradient>
    <linearGradient id="case" x1="0" y1="0" x2="1" y2="1">
      <stop offset="0" stop-color="#183047"/>
      <stop offset="1" stop-color="#091827"/>
    </linearGradient>
    <filter id="shadow" x="-20%" y="-20%" width="140%" height="140%">
      <feDropShadow dx="0" dy="26" stdDeviation="30" flood-color="#102333" flood-opacity=".22"/>
    </filter>
  </defs>
  <rect width="1600" height="900" fill="url(#bg)"/>
  <g opacity=".24" stroke="#173047" stroke-width="2" fill="none">
    <path d="M90 170h1420M90 730h1420"/>
    <path d="M210 90v720M1390 90v720"/>
  </g>
  <path d="M160 660h220l120-420h330l130 420h490" fill="none" stroke="#b81220" stroke-width="10" stroke-linejoin="round" stroke-linecap="round"/>
  <g fill="#fff" stroke="#173047" stroke-width="5" filter="url(#shadow)">
    <circle cx="160" cy="660" r="28"/>
    <circle cx="500" cy="240" r="28"/>
    <circle cx="830" cy="240" r="28"/>
    <circle cx="960" cy="660" r="28"/>
    <circle cx="1430" cy="660" r="28"/>
  </g>
  <g filter="url(#shadow)" transform="translate(420 250)">
    <rect x="0" y="80" width="720" height="390" rx="44" fill="url(#case)"/>
    <rect x="66" y="142" width="588" height="254" rx="28" fill="#eef2f1"/>
    <rect x="260" y="20" width="200" height="90" rx="24" fill="#173047"/>
    <rect x="302" y="46" width="116" height="22" rx="11" fill="#dfe7e5"/>
    <g transform="translate(132 188)">
      <rect x="0" y="58" width="132" height="112" rx="20" fill="#fff" stroke="#173047" stroke-width="4"/>
      <rect x="30" y="0" width="72" height="70" rx="14" fill="#b81220"/>
      <rect x="26" y="94" width="80" height="36" rx="8" fill="#b81220" opacity=".86"/>
    </g>
    <g transform="translate(326 172)">
      <rect x="0" y="0" width="210" height="174" rx="20" fill="#fff" stroke="#173047" stroke-width="4"/>
      <path d="M42 122V48" stroke="#b81220" stroke-width="16" stroke-linecap="round"/>
      <circle cx="42" cy="126" r="25" fill="#b81220"/>
      <path d="M82 56h82M82 88h58M82 120h96" stroke="#173047" stroke-width="10" stroke-linecap="round" opacity=".55"/>
    </g>
    <g transform="translate(564 186)">
      <rect width="52" height="148" rx="12" fill="#173047"/>
      <g fill="#fff">
        <rect x="12" y="18" width="28" height="8"/>
        <rect x="12" y="38" width="28" height="8"/>
        <rect x="12" y="58" width="28" height="8"/>
        <rect x="12" y="78" width="28" height="8"/>
        <rect x="12" y="98" width="28" height="8"/>
        <rect x="12" y="118" width="28" height="8"/>
      </g>
    </g>
    <circle cx="62" cy="275" r="14" fill="#ef4554"/>
    <circle cx="658" cy="275" r="14" fill="#ef4554"/>
  </g>
  <g transform="translate(1145 160)" filter="url(#shadow)">
    <rect width="280" height="190" rx="24" fill="#fff"/>
    <rect x="28" y="28" width="86" height="16" rx="8" fill="#173047"/>
    <path d="M40 128h38l28-46 42 70 32-58 50 34" fill="none" stroke="#b81220" stroke-width="10" stroke-linecap="round" stroke-linejoin="round"/>
    <circle cx="230" cy="128" r="12" fill="#173047"/>
  </g>
  <g transform="translate(150 166)" filter="url(#shadow)">
    <rect width="232" height="166" rx="22" fill="#173047"/>
    <rect x="26" y="26" width="92" height="14" rx="7" fill="#fff"/>
    <g fill="#fff" opacity=".5">
      <rect x="26" y="72" width="172" height="10" rx="5"/>
      <rect x="26" y="100" width="138" height="10" rx="5"/>
      <rect x="26" y="128" width="186" height="10" rx="5"/>
    </g>
  </g>
</svg>
