<svg xmlns="http://www.w3.org/2000/svg" width="1600" height="900" viewBox="0 0 1600 900" role="img" aria-labelledby="title desc">
  <title id="title">Oncology formulation pathways</title>
  <desc id="desc">Abstract editorial composition connecting vial, liquid, capsule and specialist presentation forms through controlled development pathways.</desc>
  <defs>
    <linearGradient id="bg" x1="0" y1="0" x2="1" y2="1">
      <stop offset="0" stop-color="#f4f0e8"/>
      <stop offset="1" stop-color="#dfe7e5"/>
    </linearGradient>
    <linearGradient id="red" x1="0" y1="0" x2="1" y2="1">
      <stop offset="0" stop-color="#d72a3a"/>
      <stop offset="1" stop-color="#8f1420"/>
    </linearGradient>
    <filter id="shadow" x="-20%" y="-20%" width="140%" height="140%">
      <feDropShadow dx="0" dy="24" stdDeviation="28" flood-color="#152231" flood-opacity=".16"/>
    </filter>
  </defs>
  <rect width="1600" height="900" fill="url(#bg)"/>
  <g opacity=".32" stroke="#173047" stroke-width="1">
    <path d="M0 150h1600M0 300h1600M0 450h1600M0 600h1600M0 750h1600"/>
    <path d="M200 0v900M400 0v900M600 0v900M800 0v900M1000 0v900M1200 0v900M1400 0v900"/>
  </g>
  <path d="M185 655C430 655 445 250 690 250s260 405 505 405h220" fill="none" stroke="#b81220" stroke-width="10" stroke-linecap="round"/>
  <path d="M185 655C430 655 445 250 690 250s260 405 505 405h220" fill="none" stroke="#fff" stroke-opacity=".55" stroke-width="2" stroke-dasharray="8 18"/>
  <g filter="url(#shadow)">
    <g transform="translate(130 480)">
      <rect x="0" y="74" width="190" height="230" rx="34" fill="#fff" stroke="#173047" stroke-width="5"/>
      <rect x="42" y="0" width="106" height="92" rx="18" fill="#173047"/>
      <rect x="28" y="130" width="134" height="92" rx="14" fill="url(#red)"/>
      <path d="M58 170h74M58 191h52" stroke="#fff" stroke-width="8" stroke-linecap="round" opacity=".9"/>
    </g>
    <g transform="translate(580 98)">
      <rect x="45" y="0" width="120" height="76" rx="18" fill="#173047"/>
      <path d="M30 66h150l24 70v250c0 34-28 62-62 62H68c-34 0-62-28-62-62V136z" fill="#fff" stroke="#173047" stroke-width="5"/>
      <path d="M10 265h190v121c0 34-28 62-62 62H72c-34 0-62-28-62-62z" fill="#b81220" opacity=".86"/>
      <path d="M55 210h100" stroke="#173047" stroke-width="10" stroke-linecap="round"/>
    </g>
    <g transform="translate(1030 485)">
      <rect x="0" y="58" width="310" height="142" rx="71" fill="#fff" stroke="#173047" stroke-width="5"/>
      <path d="M155 60v138" stroke="#173047" stroke-width="5"/>
      <path d="M7 129c0-36 29-65 65-65h83v130H72c-36 0-65-29-65-65z" fill="#b81220" opacity=".88"/>
      <circle cx="90" cy="129" r="16" fill="#fff" opacity=".72"/>
    </g>
  </g>
  <g fill="#173047">
    <circle cx="185" cy="655" r="18"/>
    <circle cx="690" cy="250" r="18"/>
    <circle cx="1195" cy="655" r="18"/>
    <circle cx="1415" cy="655" r="18"/>
  </g>
  <g fill="#b81220">
    <circle cx="438" cy="452" r="12"/>
    <circle cx="944" cy="452" r="12"/>
  </g>
  <rect x="1190" y="92" width="280" height="108" rx="20" fill="#173047"/>
  <g fill="#fff" opacity=".9">
    <rect x="1232" y="128" width="168" height="10" rx="5"/>
    <rect x="1232" y="156" width="112" height="10" rx="5" opacity=".58"/>
  </g>
</svg>
